HIERARCHY
ROOT Hips
{
	OFFSET 0 0 0
	CHANNELS 6 Xposition Yposition Zposition Zrotation Xrotation Yrotation 
	JOINT RightUpLeg
	{
		OFFSET -3.17 -2.64 -0.26
		CHANNELS 3 Zrotation Xrotation Yrotation 
		JOINT RightLeg
		{
			OFFSET -0.36 -13.7 -0.45
			CHANNELS 3 Zrotation Xrotation Yrotation 
			End Site
			{
				OFFSET 0.13 -14.01 -0.08
			}
		}
	}
	JOINT LeftUpLeg
	{
		OFFSET 3.17 -2.64 -0.26
		CHANNELS 3 Zrotation Xrotation Yrotation 
		JOINT LeftLeg
		{
			OFFSET 0.36 -13.7 -0.45
			CHANNELS 3 Zrotation Xrotation Yrotation 
			End Site
			{
				OFFSET -0.13 -14.01 -0.08
			}
		}
	}
	JOINT Spine
	{
		OFFSET 0 2.88 0
		CHANNELS 3 Zrotation Xrotation Yrotation 
		JOINT Spine1
		{
			OFFSET 0 3.38 0
			CHANNELS 3 Zrotation Xrotation Yrotation 
			JOINT Spine2
			{
				OFFSET 0 3.61 0
				CHANNELS 3 Zrotation Xrotation Yrotation 
				JOINT Spine3
				{
					OFFSET 0 3.52 0.37
					CHANNELS 3 Zrotation Xrotation Yrotation 
					JOINT Neck
					{
						OFFSET 0 3.62 -0.37
						CHANNELS 3 Zrotation Xrotation Yrotation 
						End Site
						{
							OFFSET 0 3 0
						}
					}
					JOINT RightShoulder
					{
						OFFSET -1.47 1.22 -0.37
						CHANNELS 3 Zrotation Xrotation Yrotation 
						JOINT RightArm
						{
							OFFSET -4.69 0 0
							CHANNELS 3 Zrotation Xrotation Yrotation 
							JOINT RightForeArm
							{
								OFFSET -7.76 0 0
								CHANNELS 3 Zrotation Xrotation Yrotation 
								JOINT RightHand
								{
									OFFSET -8.52 0 0
									CHANNELS 3 Zrotation Xrotation Yrotation 
									JOINT RightHandThumb1
									{
										OFFSET -1.01 0.08 1.27
										CHANNELS 3 Zrotation Xrotation Yrotation 
										JOINT RightHandThumb2
										{
											OFFSET -1.5 0 -0.01
											CHANNELS 3 Zrotation Xrotation Yrotation 
											End Site
											{
												OFFSET -1.04 0 -0.01
											}
										}
									}
									JOINT RightInHandIndex
									{
										OFFSET -1.31 0.21 0.81
										CHANNELS 3 Zrotation Xrotation Yrotation 
										JOINT RightHandIndex1
										{
											OFFSET -2.13 -0.04 0.41
											CHANNELS 3 Zrotation Xrotation Yrotation 
											JOINT RightHandIndex2
											{
												OFFSET -1.47 -0.07 0
												CHANNELS 3 Zrotation Xrotation Yrotation 
												End Site
												{
													OFFSET -0.83 -0.05 0
												}
											}
										}
									}
									JOINT RightInHandMiddle
									{
										OFFSET -1.38 0.21 0.31
										CHANNELS 3 Zrotation Xrotation Yrotation 
										JOINT RightHandMiddle1
										{
											OFFSET -2.11 -0.03 0.13
											CHANNELS 3 Zrotation Xrotation Yrotation 
											JOINT RightHandMiddle2
											{
												OFFSET -1.6 -0.11 0
												CHANNELS 3 Zrotation Xrotation Yrotation 
												End Site
												{
													OFFSET -1 -0.08 0
												}
											}
										}
									}
									JOINT RightInHandRing
									{
										OFFSET -1.37 0.22 -0.05
										CHANNELS 3 Zrotation Xrotation Yrotation 
										JOINT RightHandRing1
										{
											OFFSET -1.89 -0.01 -0.2
											CHANNELS 3 Zrotation Xrotation Yrotation 
											JOINT RightHandRing2
											{
												OFFSET -1.4 -0.13 0
												CHANNELS 3 Zrotation Xrotation Yrotation 
												End Site
												{
													OFFSET -0.97 -0.08 0
												}
											}
										}
									}
									JOINT RightInHandPinky
									{
										OFFSET -1.29 0.19 -0.49
										CHANNELS 3 Zrotation Xrotation Yrotation 
										JOINT RightHandPinky1
										{
											OFFSET -1.69 -0.01 -0.44
											CHANNELS 3 Zrotation Xrotation Yrotation 
											JOINT RightHandPinky2
											{
												OFFSET -1.12 -0.06 -0.01
												CHANNELS 3 Zrotation Xrotation Yrotation 
												End Site
												{
													OFFSET -0.71 -0.05 0
												}
											}
										}
									}
								}
							}
						}
					}
					JOINT LeftShoulder
					{
						OFFSET 1.47 1.22 -0.37
						CHANNELS 3 Zrotation Xrotation Yrotation 
						JOINT LeftArm
						{
							OFFSET 4.69 0 0
							CHANNELS 3 Zrotation Xrotation Yrotation 
							JOINT LeftForeArm
							{
								OFFSET 7.76 0 0
								CHANNELS 3 Zrotation Xrotation Yrotation 
								JOINT LeftHand
								{
									OFFSET 8.52 0 0
									CHANNELS 3 Zrotation Xrotation Yrotation 
									JOINT LeftHandThumb1
									{
										OFFSET 1.01 0.08 1.27
										CHANNELS 3 Zrotation Xrotation Yrotation 
										JOINT LeftHandThumb2
										{
											OFFSET 1.5 0 0
											CHANNELS 3 Zrotation Xrotation Yrotation 
											End Site
											{
												OFFSET 1.04 0 0
											}
										}
									}
									JOINT LeftInHandIndex
									{
										OFFSET 1.31 0.21 0.81
										CHANNELS 3 Zrotation Xrotation Yrotation 
										JOINT LeftHandIndex1
										{
											OFFSET 2.13 -0.04 0.41
											CHANNELS 3 Zrotation Xrotation Yrotation 
											JOINT LeftHandIndex2
											{
												OFFSET 1.47 -0.07 0
												CHANNELS 3 Zrotation Xrotation Yrotation 
												End Site
												{
													OFFSET 0.83 -0.05 0
												}
											}
										}
									}
									JOINT LeftInHandMiddle
									{
										OFFSET 1.38 0.21 0.31
										CHANNELS 3 Zrotation Xrotation Yrotation 
										JOINT LeftHandMiddle1
										{
											OFFSET 2.11 -0.03 0.13
											CHANNELS 3 Zrotation Xrotation Yrotation 
											JOINT LeftHandMiddle2
											{
												OFFSET 1.6 -0.11 0
												CHANNELS 3 Zrotation Xrotation Yrotation 
												End Site
												{
													OFFSET 1 -0.08 0
												}
											}
										}
									}
									JOINT LeftInHandRing
									{
										OFFSET 1.37 0.22 -0.05
										CHANNELS 3 Zrotation Xrotation Yrotation 
										JOINT LeftHandRing1
										{
											OFFSET 1.89 -0.01 -0.2
											CHANNELS 3 Zrotation Xrotation Yrotation 
											JOINT LeftHandRing2
											{
												OFFSET 1.4 -0.11 0
												CHANNELS 3 Zrotation Xrotation Yrotation 
												End Site
												{
													OFFSET 0.97 -0.07 0
												}
											}
										}
									}
									JOINT LeftInHandPinky
									{
										OFFSET 1.29 0.19 -0.49
										CHANNELS 3 Zrotation Xrotation Yrotation 
										JOINT LeftHandPinky1
										{
											OFFSET 1.69 -0.01 -0.44
											CHANNELS 3 Zrotation Xrotation Yrotation 
											JOINT LeftHandPinky2
											{
												OFFSET 1.12 -0.06 0
												CHANNELS 3 Zrotation Xrotation Yrotation 
												End Site
												{
													OFFSET 0.71 -0.05 0
												}
											}
										}
									}
								}
							}
						}
					}
				}
			}
		}
	}
}
MOTION
Frames: 11
Frame Time: 0.0333333
28.5681 17.6913 14.5603 359.2011 -5.0854 350.9379 34.8276 -66.4296 8.6526 0 -274.7447 0 63.4209 -357.6514 31.7715 0 -302.1797 0 359.9695 -350.6402 5.1821 0.0718 -357.6645 1.3058 0.0905 -356.1515 2.1776 359.4745 -357.9786 1.2648 121.5328 -277.3176 245.1901 344.3299 -346.9944 18.1446 76.5649 -34.3245 76.8455 172.5141 -325.7502 292.4353 301.6885 -288.1602 73.0461 351.955 -343.3273 116.2269 359.4562 -20.3805 88.4389 0 0 0 129.2043 -348.2702 350.5843 293.5632 0 0 0 0 0 34.846 0 0 34.846 0 0 0 0 0 16.7868 -4.4251 345.6532 17.344 0 0 0 0 0 118.198 -22.341 11.5192 115.9159 0 0 25.9957 -4.869 343.134 274.5527 -55.1039 263.6489 2.8468 -337.0078 200.1647 335.2729 -343.3486 327.1778 9.7452 -289.1309 259.697 331.8917 -332.0698 318.7519 0 0 0 194.2128 -356.2361 14.5306 328.4249 0 0 0 0 0 328.622 0 0 328.622 0 0 0 0 0 355.3986 -1.2314 14.9505 355.237 0 0 0 0 0 273.6909 -24.9545 1.559 273.3459 0 0 
28.5681 17.6913 14.5603 359.2011 -5.0854 350.9379 34.8276 -66.4296 8.6526 0 -274.7447 0 63.4209 -357.6514 31.7715 0 -302.1797 0 359.9695 -350.6402 5.1821 0.0718 -357.6645 1.3058 0.0905 -356.1515 2.1776 359.4745 -357.9786 1.2648 121.5328 -277.3176 245.1901 344.3299 -346.9944 18.1446 76.5649 -34.3245 76.8455 172.5141 -325.7502 292.4353 301.6885 -288.1602 73.0461 351.955 -343.3273 116.2269 359.4562 -20.3805 88.4389 0 0 0 129.2043 -348.2702 350.5843 293.5632 0 0 0 0 0 34.846 0 0 34.846 0 0 0 0 0 16.7868 -4.4251 345.6532 17.344 0 0 0 0 0 118.198 -22.341 11.5192 115.9159 0 0 25.9957 -4.869 343.134 274.5527 -55.1039 263.6489 2.8468 -337.0078 200.1647 335.2729 -343.3486 327.1778 9.7452 -289.1309 259.697 331.8917 -332.0698 318.7519 0 0 0 194.2128 -356.2361 14.5306 328.4249 0 0 0 0 0 328.622 0 0 328.622 0 0 0 0 0 355.3986 -1.2314 14.9505 355.237 0 0 0 0 0 273.6909 -24.9545 1.559 273.3459 0 0 
28.6184 17.6922 14.5586 359.1908 -5.0895 350.9181 34.762 -66.503 8.7192 0 -274.6642 0 63.4514 -357.7164 31.8491 0 -301.8913 0 0.1932 -350.5616 5.0442 0.1259 -357.6495 1.2804 0.1806 -356.129 2.1392 359.4714 -357.9765 1.2706 119.8471 -277.2656 246.9081 344.3722 -347.192 18.047 76.3214 -34.153 76.8348 172.4178 -325.9808 292.4889 301.5899 -288.1613 73.1235 351.9499 -343.3274 116.2418 359.4668 -20.3786 88.4691 0 0 0 129.2075 -348.2707 350.5836 293.5459 0 0 0 0 0 34.8353 0 0 34.8353 0 0 0 0 0 16.7711 -4.4211 345.652 17.3278 0 0 0 0 0 118.1866 -22.3432 11.5148 115.9052 0 0 25.8352 -5.0702 343.4729 274.4589 -54.9187 263.8513 1.6833 -344.7702 208.8985 336.3212 -345.1632 327.3787 37.1625 -296.2946 229.7856 348.8956 -324.5025 288.6758 0 0 0 195.13 -355.9994 14.4685 323.7361 0 0 0 0 0 324.8834 0 0 324.8834 0 0 0 0 0 357.7806 -0.5945 14.9885 357.7024 0 0 0 0 0 278.1235 -24.7794 3.4237 277.3712 0 0 
28.6184 17.6922 14.5586 359.1908 -5.0895 350.9181 34.762 -66.503 8.7192 0 -274.6642 0 63.4514 -357.7164 31.8491 0 -301.8913 0 0.1932 -350.5616 5.0442 0.1259 -357.6495 1.2804 0.1806 -356.129 2.1392 359.4714 -357.9765 1.2706 119.8471 -277.2656 246.9081 344.3722 -347.192 18.047 76.3214 -34.153 76.8348 172.4178 -325.9808 292.4889 301.5899 -288.1613 73.1235 351.9499 -343.3274 116.2418 359.4668 -20.3786 88.4691 0 0 0 129.2075 -348.2707 350.5836 293.5459 0 0 0 0 0 34.8353 0 0 34.8353 0 0 0 0 0 16.7711 -4.4211 345.652 17.3278 0 0 0 0 0 118.1866 -22.3432 11.5148 115.9052 0 0 25.8352 -5.0702 343.4729 274.4589 -54.9187 263.8513 1.6833 -344.7702 208.8985 336.3212 -345.1632 327.3787 37.1625 -296.2946 229.7856 348.8956 -324.5025 288.6758 0 0 0 195.13 -355.9994 14.4685 323.7361 0 0 0 0 0 324.8834 0 0 324.8834 0 0 0 0 0 357.7806 -0.5945 14.9885 357.7024 0 0 0 0 0 278.1235 -24.7794 3.4237 277.3712 0 0 
28.6391 17.6915 14.5564 359.1908 -5.0895 350.9181 34.6897 -66.5395 8.6908 0 -274.6421 0 63.4572 -357.7602 31.8718 0 -301.7808 0 0.3127 -350.5318 4.939 0.1542 -357.6442 1.2589 0.2279 -356.1214 2.1055 359.4691 -357.9761 1.2755 119.1749 -277.2296 247.5664 344.6145 -347.432 17.9036 75.8494 -33.9492 76.6444 172.3696 -326.0656 292.5786 301.5938 -288.1704 73.1252 351.9482 -343.3274 116.2467 359.4703 -20.378 88.479 0 0 0 129.204 -348.2701 350.5844 293.5305 0 0 0 0 0 34.8325 0 0 34.8325 0 0 0 0 0 16.7644 -4.4194 345.6515 17.3209 0 0 0 0 0 118.1832 -22.3438 11.5135 115.9019 0 0 25.8491 -5.1331 343.7284 268.1219 -55.3463 259.1483 359.702 -350.3758 217.7091 337.5525 -347.0976 328.0475 42.3897 -304.3766 222.1196 0.7607 -327.0046 268.6032 0 0 0 196.4517 -355.6604 14.3724 318.4922 0 0 0 0 0 319.6174 0 0 319.6174 0 0 0 0 0 2.4423 -359.3458 14.9861 2.5283 0 0 0 0 0 289.6152 -23.7133 8.1563 287.9001 0 0 
28.6391 17.6915 14.5564 359.1908 -5.0895 350.9181 34.6897 -66.5395 8.6908 0 -274.6421 0 63.4572 -357.7602 31.8718 0 -301.7808 0 0.3127 -350.5318 4.939 0.1542 -357.6442 1.2589 0.2279 -356.1214 2.1055 359.4691 -357.9761 1.2755 119.1749 -277.2296 247.5664 344.6145 -347.432 17.9036 75.8494 -33.9492 76.6444 172.3696 -326.0656 292.5786 301.5938 -288.1704 73.1252 351.9482 -343.3274 116.2467 359.4703 -20.378 88.479 0 0 0 129.204 -348.2701 350.5844 293.5305 0 0 0 0 0 34.8325 0 0 34.8325 0 0 0 0 0 16.7644 -4.4194 345.6515 17.3209 0 0 0 0 0 118.1832 -22.3438 11.5135 115.9019 0 0 25.8491 -5.1331 343.7284 268.1219 -55.3463 259.1483 359.702 -350.3758 217.7091 337.5525 -347.0976 328.0475 42.3897 -304.3766 222.1196 0.7607 -327.0046 268.6032 0 0 0 196.4517 -355.6604 14.3724 318.4922 0 0 0 0 0 319.6174 0 0 319.6174 0 0 0 0 0 2.4423 -359.3458 14.9861 2.5283 0 0 0 0 0 289.6152 -23.7133 8.1563 287.9001 0 0 
28.6172 17.689 14.5522 359.1667 -5.0821 350.9048 34.7859 -66.4902 8.6934 0 -274.7175 0 63.4813 -357.7254 31.8532 0 -301.9198 0 0.4403 -350.4992 4.8401 0.1847 -357.6384 1.2393 0.2787 -356.1129 2.0752 359.4793 -357.9765 1.2458 119.8817 -277.326 247.0006 344.7356 -347.6113 17.8862 75.6253 -33.8485 76.6472 172.2919 -326.2559 292.6926 301.5595 -288.1687 73.158 351.9463 -343.3271 116.2516 359.4737 -20.377 88.4888 0 0 0 129.2014 -348.2697 350.5849 293.5243 0 0 0 0 0 34.8298 0 0 34.8298 0 0 0 0 0 16.7584 -4.4179 345.6511 17.3148 0 0 0 0 0 118.18 -22.3444 11.5123 115.899 0 0 25.8847 -5.2033 343.9022 255.4171 -55.1933 250.1615 357.1952 -354.1753 226.3522 339.1214 -349.9519 329.116 40.7973 -311.2836 221.0445 5.8881 -332.9004 257.2438 0 0 0 191.1393 -357.0367 14.711 318.4922 0 0 0 0 0 310.2788 0 0 310.2788 0 0 0 0 0 9.3309 -357.5124 14.797 9.654 0 0 0 0 0 318.4253 -17.1941 18.4307 315.6152 0 0 
28.6172 17.689 14.5522 359.1667 -5.0821 350.9048 34.7859 -66.4902 8.6934 0 -274.7175 0 63.4813 -357.7254 31.8532 0 -301.9198 0 0.4403 -350.4992 4.8401 0.1847 -357.6384 1.2393 0.2787 -356.1129 2.0752 359.4793 -357.9765 1.2458 119.8817 -277.326 247.0006 344.7356 -347.6113 17.8862 75.6253 -33.8485 76.6472 172.2919 -326.2559 292.6926 301.5595 -288.1687 73.158 351.9463 -343.3271 116.2516 359.4737 -20.377 88.4888 0 0 0 129.2014 -348.2697 350.5849 293.5243 0 0 0 0 0 34.8298 0 0 34.8298 0 0 0 0 0 16.7584 -4.4179 345.6511 17.3148 0 0 0 0 0 118.18 -22.3444 11.5123 115.899 0 0 25.8847 -5.2033 343.9022 255.4171 -55.1933 250.1615 357.1952 -354.1753 226.3522 339.1214 -349.9519 329.116 40.7973 -311.2836 221.0445 5.8881 -332.9004 257.2438 0 0 0 191.1393 -357.0367 14.711 318.4922 0 0 0 0 0 310.2788 0 0 310.2788 0 0 0 0 0 9.3309 -357.5124 14.797 9.654 0 0 0 0 0 318.4253 -17.1941 18.4307 315.6152 0 0 
28.5486 17.6852 14.5501 359.1284 -5.0639 350.8804 35.03 -66.3455 8.6988 0 -274.8907 0 63.5067 -357.5952 31.7874 0 -302.3454 0 0.5669 -350.4587 4.7418 0.2149 -357.6305 1.2199 0.3291 -356.1011 2.0452 359.4744 -357.9762 1.2566 120.8429 -277.2235 245.8663 344.8133 -347.7088 17.9017 75.5491 -33.8131 76.793 172.2001 -326.4753 292.8002 301.5532 -288.1715 73.1544 351.946 -343.3275 116.2529 359.4747 -20.3772 88.4917 0 0 0 129.2065 -348.2705 350.5839 293.5094 0 0 0 0 0 34.8278 0 0 34.8278 0 0 0 0 0 16.7582 -4.4178 345.651 17.3145 0 0 0 0 0 118.1783 -22.3447 11.5117 115.8974 0 0 25.8375 -5.2759 344.1046 255.3479 -55.1449 250.255 355.826 -6.4037 236.7625 341.1482 -353.2744 330.7147 37.1769 -317.494 221.698 7.1672 -339.4892 250.2576 0 0 0 200.3771 -354.6698 14.0414 306.8026 0 0 0 0 0 289.8888 0 0 289.8888 0 0 0 0 0 17.9625 -355.2762 14.253 18.5534 0 0 0 0 0 326.4205 -14.4621 20.6153 323.7767 0 0 
28.5486 17.6852 14.5501 359.1284 -5.0639 350.8804 35.03 -66.3455 8.6988 0 -274.8907 0 63.5067 -357.5952 31.7874 0 -302.3454 0 0.5669 -350.4587 4.7418 0.2149 -357.6305 1.2199 0.3291 -356.1011 2.0452 359.4744 -357.9762 1.2566 120.8429 -277.2235 245.8663 344.8133 -347.7088 17.9017 75.5491 -33.8131 76.793 172.2001 -326.4753 292.8002 301.5532 -288.1715 73.1544 351.946 -343.3275 116.2529 359.4747 -20.3772 88.4917 0 0 0 129.2065 -348.2705 350.5839 293.5094 0 0 0 0 0 34.8278 0 0 34.8278 0 0 0 0 0 16.7582 -4.4178 345.651 17.3145 0 0 0 0 0 118.1783 -22.3447 11.5117 115.8974 0 0 25.8375 -5.2759 344.1046 255.3479 -55.1449 250.255 355.826 -6.4037 236.7625 341.1482 -353.2744 330.7147 37.1769 -317.494 221.698 7.1672 -339.4892 250.2576 0 0 0 200.3771 -354.6698 14.0414 306.8026 0 0 0 0 0 289.8888 0 0 289.8888 0 0 0 0 0 17.9625 -355.2762 14.253 18.5534 0 0 0 0 0 326.4205 -14.4621 20.6153 323.7767 0 0 
28.4368 17.6854 14.5466 359.1226 -5.0478 350.8628 35.3761 -66.1124 8.7332 0 -275.1653 0 63.4689 -357.3851 31.6754 0 -303.0612 0 0.661 -350.4106 4.6513 0.2372 -357.6199 1.2013 0.3664 -356.0846 2.0159 359.4728 -357.9742 1.2573 120.8454 -277.1505 245.7975 344.901 -347.8192 17.8985 75.486 -33.7422 76.8836 172.1208 -326.6984 292.8412 301.485 -288.1577 73.2093 351.9456 -343.3291 116.2563 359.4772 -20.3785 88.499 0 0 0 129.2099 -348.2711 350.5832 293.5011 0 0 0 0 0 34.8237 0 0 34.8237 0 0 0 0 0 16.7534 -4.4166 345.6507 17.3096 0 0 0 0 0 118.1742 -22.3455 11.5101 115.8934 0 0 25.5866 -5.2838 344.4883 249.5731 -54.4002 246.3235 353.0433 -16.8012 246.9427 344.2762 -357.3279 334.3736 33.0722 -324.0141 222.0603 6.5593 -346.5301 243.7275 0 0 0 203.7122 -353.8499 13.7077 299.2096 0 0 0 0 0 301.1248 0 0 301.1248 0 0 0 0 0 27.6175 -352.9194 13.2576 28.4414 0 0 0 0 0 320.521 -16.5138 19.0384 317.7331 0 0 
